<svg width="60" height="60" viewBox="0 0 60 60" xmlns="http://www.w3.org/2000/svg">
  <defs>
    <pattern id="conference-pattern" x="0" y="0" width="60" height="60" patternUnits="userSpaceOnUse">
      <!-- Meeting room icons -->
      <rect x="10" y="10" width="15" height="10" rx="2" fill="none" stroke="currentColor" stroke-width="0.5" opacity="0.1"/>
      <circle cx="17.5" cy="15" r="1" fill="currentColor" opacity="0.05"/>
      <circle cx="12.5" cy="15" r="1" fill="currentColor" opacity="0.05"/>
      <circle cx="22.5" cy="15" r="1" fill="currentColor" opacity="0.05"/>
      
      <!-- Calendar grid -->
      <rect x="35" y="35" width="15" height="15" rx="2" fill="none" stroke="currentColor" stroke-width="0.5" opacity="0.08"/>
      <line x1="37" y1="40" x2="48" y2="40" stroke="currentColor" stroke-width="0.3" opacity="0.06"/>
      <line x1="37" y1="43" x2="48" y2="43" stroke="currentColor" stroke-width="0.3" opacity="0.06"/>
      <line x1="37" y1="46" x2="48" y2="46" stroke="currentColor" stroke-width="0.3" opacity="0.06"/>
      
      <!-- Clock -->
      <circle cx="42.5" cy="17.5" r="7" fill="none" stroke="currentColor" stroke-width="0.5" opacity="0.08"/>
      <line x1="42.5" y1="17.5" x2="42.5" y2="13" stroke="currentColor" stroke-width="0.5" opacity="0.06"/>
      <line x1="42.5" y1="17.5" x2="46" y2="17.5" stroke="currentColor" stroke-width="0.5" opacity="0.06"/>
      
      <!-- Decorative dots -->
      <circle cx="15" cy="42" r="1" fill="currentColor" opacity="0.03"/>
      <circle cx="25" cy="8" r="1" fill="currentColor" opacity="0.03"/>
      <circle cx="8" cy="32" r="1" fill="currentColor" opacity="0.03"/>
      <circle cx="52" cy="8" r="1" fill="currentColor" opacity="0.03"/>
    </pattern>
  </defs>
  <rect width="100%" height="100%" fill="url(#conference-pattern)"/>
</svg>
