<svg width="400" height="300" viewBox="0 0 400 300" xmlns="http://www.w3.org/2000/svg">
  <defs>
    <linearGradient id="roomGradient1" x1="0%" y1="0%" x2="100%" y2="100%">
      <stop offset="0%" style="stop-color:#3B82F6;stop-opacity:0.1" />
      <stop offset="50%" style="stop-color:#8B5CF6;stop-opacity:0.1" />
      <stop offset="100%" style="stop-color:#06B6D4;stop-opacity:0.1" />
    </linearGradient>
    <pattern id="gridPattern1" x="0" y="0" width="20" height="20" patternUnits="userSpaceOnUse">
      <path d="M 20 0 L 0 0 0 20" fill="none" stroke="#E5E7EB" stroke-width="0.5" opacity="0.3"/>
    </pattern>
  </defs>
  
  <!-- Background -->
  <rect width="400" height="300" fill="url(#roomGradient1)"/>
  <rect width="400" height="300" fill="url(#gridPattern1)"/>
  
  <!-- Conference table -->
  <ellipse cx="200" cy="180" rx="80" ry="40" fill="#F3F4F6" stroke="#D1D5DB" stroke-width="2"/>
  
  <!-- Chairs around table -->
  <rect x="140" y="140" width="20" height="15" rx="3" fill="#6B7280"/>
  <rect x="240" y="140" width="20" height="15" rx="3" fill="#6B7280"/>
  <rect x="140" y="205" width="20" height="15" rx="3" fill="#6B7280"/>
  <rect x="240" y="205" width="20" height="15" rx="3" fill="#6B7280"/>
  <rect x="120" y="170" width="15" height="20" rx="3" fill="#6B7280"/>
  <rect x="265" y="170" width="15" height="20" rx="3" fill="#6B7280"/>
  
  <!-- Projector screen -->
  <rect x="50" y="50" width="100" height="60" rx="5" fill="#F9FAFB" stroke="#D1D5DB" stroke-width="2"/>
  <rect x="55" y="55" width="90" height="50" fill="#E5E7EB"/>
  
  <!-- Window -->
  <rect x="320" y="40" width="60" height="80" rx="5" fill="#DBEAFE" stroke="#93C5FD" stroke-width="2"/>
  <line x1="350" y1="40" x2="350" y2="120" stroke="#93C5FD" stroke-width="1"/>
  <line x1="320" y1="80" x2="380" y2="80" stroke="#93C5FD" stroke-width="1"/>
  
  <!-- Decorative elements -->
  <circle cx="350" cy="250" r="15" fill="#10B981" opacity="0.2"/>
  <circle cx="80" cy="250" r="12" fill="#F59E0B" opacity="0.2"/>
  <circle cx="320" cy="200" r="10" fill="#EF4444" opacity="0.2"/>
</svg>
